<svg width="1920" height="615" viewBox="0 0 1920 615" fill="none" xmlns="http://www.w3.org/2000/svg">
<g clip-path="url(#clip0_1_16)" filter="url(#filter0_d_1_16)">
<rect width="1920" height="615" transform="matrix(-1 0 0 1 1921 0)" fill="url(#paint0_linear_1_16)"/>
<g filter="url(#filter1_f_1_16)">
<path d="M2395.03 252.67C2216.68 218.633 1691.88 251.398 1580.2 328.41C1468.52 405.421 1719.4 506.452 1990.62 531.554C2261.84 556.655 2192.36 496.749 2304.04 419.738C2415.72 342.726 2573.39 286.707 2395.03 252.67Z" fill="#3973F5"/>
</g>
<g filter="url(#filter2_f_1_16)">
<path d="M1332.3 -84.2824C804.113 -212.427 992.677 -212.903 737.985 -189.348C483.292 -165.792 355.826 -171.012 429.365 -89.4308C502.903 -7.84959 698.664 -25.6803 563.364 185.591C428.064 396.863 1860.49 43.8619 1332.3 -84.2824Z" fill="#83D4FF"/>
</g>
<g filter="url(#filter3_f_1_16)">
<path d="M-622.97 736.965C-430.732 795.435 76.3564 576.086 275.775 691.017C475.194 805.949 663.959 629.29 733 483.64C802.04 337.989 111.949 327.396 -273.343 441.736C-658.634 556.077 -815.208 678.496 -622.97 736.965Z" fill="#45B7F4"/>
</g>
<g filter="url(#filter4_f_1_16)">
<path d="M748.283 4.30128C677.049 148.012 1166.62 8.76613 1594.74 71.5576C2022.86 134.349 1537.13 -138.482 1344.89 -196.952C1152.65 -255.421 908.26 -311.355 725.72 -249.779C543.18 -188.202 819.518 -139.409 748.283 4.30128Z" fill="#398BF5"/>
</g>
</g>
<defs>
<filter id="filter0_d_1_16" x="-3" y="0" width="1928" height="623" filterUnits="userSpaceOnUse" color-interpolation-filters="sRGB">
<feFlood flood-opacity="0" result="BackgroundImageFix"/>
<feColorMatrix in="SourceAlpha" type="matrix" values="0 0 0 0 0 0 0 0 0 0 0 0 0 0 0 0 0 0 127 0" result="hardAlpha"/>
<feOffset dy="4"/>
<feGaussianBlur stdDeviation="2"/>
<feComposite in2="hardAlpha" operator="out"/>
<feColorMatrix type="matrix" values="0 0 0 0 0 0 0 0 0 0 0 0 0 0 0 0 0 0 0.25 0"/>
<feBlend mode="normal" in2="BackgroundImageFix" result="effect1_dropShadow_1_16"/>
<feBlend mode="normal" in="SourceGraphic" in2="effect1_dropShadow_1_16" result="shape"/>
</filter>
<filter id="filter1_f_1_16" x="1352.99" y="39.2636" width="1322.57" height="698.089" filterUnits="userSpaceOnUse" color-interpolation-filters="sRGB">
<feFlood flood-opacity="0" result="BackgroundImageFix"/>
<feBlend mode="normal" in="SourceGraphic" in2="BackgroundImageFix" result="shape"/>
<feGaussianBlur stdDeviation="100" result="effect1_foregroundBlur_1_16"/>
</filter>
<filter id="filter2_f_1_16" x="208.71" y="-401.261" width="1441.04" height="852.765" filterUnits="userSpaceOnUse" color-interpolation-filters="sRGB">
<feFlood flood-opacity="0" result="BackgroundImageFix"/>
<feBlend mode="normal" in="SourceGraphic" in2="BackgroundImageFix" result="shape"/>
<feGaussianBlur stdDeviation="100" result="effect1_foregroundBlur_1_16"/>
</filter>
<filter id="filter3_f_1_16" x="-905.141" y="164.197" width="1842.96" height="782.875" filterUnits="userSpaceOnUse" color-interpolation-filters="sRGB">
<feFlood flood-opacity="0" result="BackgroundImageFix"/>
<feBlend mode="normal" in="SourceGraphic" in2="BackgroundImageFix" result="shape"/>
<feGaussianBlur stdDeviation="100" result="effect1_foregroundBlur_1_16"/>
</filter>
<filter id="filter4_f_1_16" x="462.218" y="-476.592" width="1503.87" height="757.472" filterUnits="userSpaceOnUse" color-interpolation-filters="sRGB">
<feFlood flood-opacity="0" result="BackgroundImageFix"/>
<feBlend mode="normal" in="SourceGraphic" in2="BackgroundImageFix" result="shape"/>
<feGaussianBlur stdDeviation="100" result="effect1_foregroundBlur_1_16"/>
</filter>
<linearGradient id="paint0_linear_1_16" x1="1140.47" y1="628.37" x2="977.674" y2="-125.81" gradientUnits="userSpaceOnUse">
<stop stop-color="#398BF5"/>
<stop offset="1" stop-color="#45B7F4"/>
</linearGradient>
<clipPath id="clip0_1_16">
<rect width="1920" height="615" fill="white" transform="matrix(-1 0 0 1 1921 0)"/>
</clipPath>
</defs>
</svg>
